<?xml version="1.0" encoding="UTF-8"?>
<svg id="Layer_1" xmlns="http://www.w3.org/2000/svg" version="1.1" viewBox="0 0 512 512">
  <!-- Generator: Adobe Illustrator 30.3.0, SVG Export Plug-In . SVG Version: 2.1.3 Build 182)  -->
  <defs>
    <style>
      .st0 {
        fill: #fefefe;
      }

      .st1 {
        fill: #fefefc;
      }

      .st2 {
        fill: #e30019;
      }
    </style>
  </defs>
  <rect class="st2" width="512" height="512"/>
  <g>
    <path class="st0" d="M477.4,291.8v22.2c0,11.1-9.1,19.7-20,20.4h-127.5s0-21.1,0-21.1h118.6c4.1-.2,7.4-3.1,7.8-7.1.2-2.5.2-4.7,0-7.3-.5-3.2-3.3-6.6-7-6.6h-119.4c0,0,0-148,0-148,0-10.7,8.5-20.3,19.3-20.7h24.3c10.4.3,18.5,8.8,19.6,19v107.3s-21,0-21,0v-97.4c0-4.2-3.1-7.7-7.2-8h-6.9c-4.4.4-7,4.2-7,8.5v118c2,.4,3.9,0,6,0h98.3c11.9,0,22.1,8.4,22.1,20.8Z"/>
    <path class="st0" d="M34.6,314.1v-22.4c.3-12.2,10.5-21.4,22.7-20.6h103.8s0-118.4,0-118.4c0-4.3-2.9-7.8-7.2-8.3h-6.2c-4.5,0-7.8,3.7-7.7,8.3v97.2s-21.1,0-21.1,0v-106.4c.5-10.6,8.9-19.7,19.6-20h24.1c10.8.4,19.5,9.8,19.5,20.5v148.2s-119.2,0-119.2,0c-3.6,0-6.4,3-7.2,6.2-.3,2.4-.3,4.5-.2,6.9.1,4.4,3.4,7.8,7.9,8h118.6s0,21.1,0,21.1H54.9c-11-.6-19.9-9.2-20.2-20.4Z"/>
    <polygon class="st0" points="266.5 330.5 266.5 334.4 245.4 334.4 245.4 143.8 203.2 143.8 203.2 122.6 308.8 122.6 308.8 143.8 266.7 143.8 266.5 151.1 266.5 330.5"/>
    <rect class="st0" x="203.2" y="207.4" width="21.1" height="127"/>
    <rect class="st0" x="287.7" y="207.4" width="21.1" height="127"/>
    <rect class="st1" x="203.2" y="165.6" width="21.1" height="21.1"/>
    <rect class="st0" x="287.7" y="165.6" width="21.1" height="21.1"/>
  </g>
</svg>